<svg width="64" height="64" viewBox="0 0 64 64" fill="none" xmlns="http://www.w3.org/2000/svg">
<path d="M39.25 59.1L38.7 64H48.4L48.8 60.2L39.25 59.1ZM0 34.4V39.9L2.7 39.55L2.05 34.15L0 34.4ZM61.3 40.2L64 39.9V34.4L60.65 34.8L61.3 40.2ZM47.7 5.75L48.35 0H38.7L38.15 4.65L47.7 5.75ZM19.65 45.8L17.5 55.6L27.2 57.75L29.4 48L19.65 45.8ZM8.3 29.1L18.15 31.7L20.7 21.8L10.85 19.25L8.3 29.1ZM32.95 28.65L25.5 31L27.9 38.45L35.3 36.1L32.95 28.65ZM8 1.7L3 3.9L5.25 8.85L10.2 6.6L8 1.7ZM60.1 55.5L60.7 50.05L55.25 49.5L54.7 54.95L60.1 55.5ZM50.2 20.05L46.45 24L50.4 27.75L54.15 23.8L50.2 20.05Z" fill="#AD763E"/>
<path d="M64 0H48.35L47.7 5.75L38.15 4.65L38.7 0H0V34.4L2.05 34.15L2.7 39.55L0 39.9V64H38.7L39.25 59.1L48.8 60.2L48.4 64H64V39.9L61.3 40.2L60.65 34.8L64 34.4V0ZM46.45 24L50.2 20.05L54.15 23.8L50.4 27.75L46.45 24ZM60.7 50.05L60.1 55.5L54.7 54.95L55.25 49.5L60.7 50.05ZM50.15 41.9L52.5 49.3L45.1 51.65L42.75 44.25L50.15 41.9ZM19.3 2.9L26.2 9.25L19.85 16.15L12.95 9.8L19.3 2.9ZM3 3.9L8 1.7L10.2 6.6L5.25 8.85L3 3.9ZM25.5 31L32.95 28.65L35.3 36.1L27.9 38.45L25.5 31ZM18.15 31.7L8.3 29.1L10.85 19.25L20.7 21.8L18.15 31.7ZM17.5 55.6L19.65 45.8L29.4 48L27.2 57.75L17.5 55.6ZM1.8 56.95L7.15 56.1L8 61.45L2.65 62.3L1.8 56.95Z" fill="#BB8044"/>
<path d="M7.15 56.1L1.8 56.95L2.65 62.3L8 61.45L7.15 56.1ZM26.2 9.24999L19.3 2.89999L12.95 9.79999L19.85 16.15L26.2 9.24999ZM52.5 49.3L50.15 41.9L42.75 44.25L45.1 51.65L52.5 49.3Z" fill="#C48647"/>
<path d="M42.65 26.05L53.35 15.55L64 26.05V20.1L53.35 12.1L42.65 20.1L32.05 12.1L21.35 20.1L10.65 12.1L0 20.1V26.05L10.65 15.55L21.35 26.05L32.05 15.55L42.65 26.05Z" fill="black" fill-opacity="0.101961"/>
<path d="M53.35 9.65L64 16V2H0V16L10.65 9.65L21.35 16L32.05 9.65L42.65 16L53.35 9.65Z" fill="#2ECC71"/>
<path d="M64 16L53.35 9.64999L42.65 16L32.05 9.64999L21.35 16L10.65 9.64999L0 16V20.1L10.65 12.1L21.35 20.1L32.05 12.1L42.65 20.1L53.35 12.1L64 20.1V16Z" fill="#28B162"/>
<path d="M64 2V0H0V2H64Z" fill="#31D978"/>
</svg>
